<svg id="Layer_1" data-name="Layer 1" xmlns="http://www.w3.org/2000/svg" viewBox="0 0 482.91 659.57"><title>Build-A-Beat</title><path d="M2.31,220.56a174.37,174.37,0,0,1,16.86-47.41c1.46-2.85,6.25-11.88,7-13.3,6.33-12.2,9.7-21.27,11.25-32.72l-1-.06c-19.72-1.23-33.11-5.15-43.81-15.85-27.72-27.73-37-48.87-29.23-68.74,2.77-7.07,8.34-14.68,16.69-23.92,2.25-2.48,4.68-5,7.38-7.83C-9,7.06,1.82-3.67,2.54-4.41A61,61,0,0,0-2.69-14.77c-5.88-9.8-32.48-47-36-52.39a44.63,44.63,0,0,1-5.64-38.67c-.38-.54-.78-1.07-1.2-1.62-5.8-7.44-14.53-6.46-12.27-11.54,1.4-3.16,10.09-1.67,18.47,2.43a48,48,0,0,1,4.73-6.25c-.53-.61-1.1-1.24-1.7-1.87-6.55-6.8-15.13-4.92-13.41-10.2,1.34-4.13,14.92-2.17,25.29,3.48.57-.36,1.15-.71,1.74-1.06q2.34-1.35,4.76-2.44c-5.92-7.16-14.49-6.09-12.33-11.17,1.81-4.27,17-.39,26.88,7.09,20.64-2.6,43.88,7,64.65,28.91a212.63,212.63,0,0,1,21.17,26.4,39.55,39.55,0,0,1,16.66-7.2,44.84,44.84,0,0,1,2.76-16.95c-5.9-7.59-14.64-6.61-12.38-11.69,1.35-3,9.35-1.79,17.38,1.92A47.44,47.44,0,0,1,112-124c-.34-.39-.71-.78-1.08-1.17-6.54-6.8-15.13-4.91-13.41-10.2,1.32-4.06,14.49-2.23,24.79,3.22a53.68,53.68,0,0,1,6.86-3.41c-5.92-7-14.33-6-12.19-11,1.84-4.33,17.35-.29,27.26,7.37,20.1-1.69,42.46,8,62.51,29.14,48.78,51.35,83,152.85,83,220.79V295.93c0,36.92-13.33,66.06-39.69,86.19v19.65A13.23,13.23,0,0,1,236.87,415H144.26A13.23,13.23,0,0,1,131,401.77a65.07,65.07,0,0,1,12.94-38,63.14,63.14,0,0,1-6.57-7.35c-3.34,4.44-8.31,10.92-11.36,14.31a90,90,0,0,1-12.46,11.56v19.47A13.23,13.23,0,0,1,100.35,415H8.41A13.23,13.23,0,0,1-4.82,401.77c0-17.14,3.33-28.93,14.6-39.08C-10.46,344.69-18,318.16-18,286.33-18,263.2-11.7,242,1.34,221.87A12.68,12.68,0,0,1,2.31,220.56Zm6.35,74.58c1.44,24.66,9.29,43.1,27,53.73a13.23,13.23,0,0,1,5.63,24.81A13.69,13.69,0,0,1,38,375.35c-8.76,4.59-12.9,8-14.81,13.19H87.12V375.31A13.21,13.21,0,0,1,93.5,364a55,55,0,0,0,11-8.94C61,355.23,25.07,331.38,8.66,295.14Zm114,31.62a112,112,0,0,1-4.89-32.25c0-34.5,17.07-64.64,48-77a13.23,13.23,0,0,1,9.82,24.57c-20,8-31.37,28-31.37,52.44s13.57,52.1,25,54.38c.5,0,1,0,1.49,0a13.33,13.33,0,0,1,0,26.65c-3.8,1-7.65,6.56-10.27,13h63.19V375.31a13.25,13.25,0,0,1,5.89-11c22.66-15.1,33.8-37.38,33.8-68.37V110.72c0-61.59-32-156.56-75.74-202.57C167.86-112.62,149-117,136.07-109.56c-10.35,6-13.67,18.1-7.61,27.22,28,38.11,44.25,75.53,48.41,112.24a13.23,13.23,0,1,1-26.29,3C147,1.72,133.12-30.82,108.23-65.2a13.09,13.09,0,0,1-2.18.18A13.23,13.23,0,0,0,92.82-51.79a13.57,13.57,0,0,0,.1,1.69A13.21,13.21,0,0,1,82.75-35.56l-1.33.33A50.37,50.37,0,0,0,76-33.5a13.23,13.23,0,0,1-16.93-7.3A13.24,13.24,0,0,0,46.85-49,13.23,13.23,0,0,0,33.62-35.75a13.2,13.2,0,0,0,4.83,10.22A13.23,13.23,0,0,1,39.69-6.29c-3.73,4-15.91,18-18.31,20.46-.88.89-11.59,11.53-15,15-2.49,2.57-4.71,4.92-6.73,7.14-6.33,7-10.4,12.57-11.68,15.83-2.95,7.53,2.21,19.27,23.31,40.37,5,5,12.92,7.29,26.75,8.15,2.51.16,4.41.24,9.26.43,21.41.81,43.36.81,58,0a13.23,13.23,0,1,1,1.45,26.42c-11.41.62-26.72.79-42.82.5-1.81,16-6.2,28.36-14.3,44-.83,1.59-5.58,10.54-6.92,13.17a150.36,150.36,0,0,0-15.87,48.17C17,293.41,62.71,338.32,122.69,326.76ZM42.06-91.85C22.33-112.62,3.45-117-9.45-109.56c-10.35,6-13.68,18.1-7.27,27.72,2,3.07,14.93,21.18,25.17,36.05a39.69,39.69,0,0,1,38.4-29.65A39.62,39.62,0,0,1,56.7-74.2,179.8,179.8,0,0,0,42.06-91.85ZM-.09,52.55c4.87-4.83,15.52-4.39,19.61,0S13.41,65,10.05,65-5,57.39-.09,52.55ZM84.73,18.11a6.62,6.62,0,1,1,6.61-6.62A6.62,6.62,0,0,1,84.73,18.11Z" transform="translate(165.85 244.57)"/><path d="M57.67-231.14l2.22,37a24.71,24.71,0,0,0-10.55-1.52c-9,.54-16.13,5.2-15.81,10.39s7.91,9,16.94,8.42S66.6-182,66.29-187.23l-1.93-32.14,48.17-10.79L114-206.23a24.55,24.55,0,0,0-10.55-1.53c-9,.54-16.12,5.2-15.81,10.39s7.91,9,16.94,8.42,16.13-5.2,15.82-10.39l-2.72-45.23Z" transform="translate(165.85 244.57)"/><path d="M-123.18-79.89l-14.68,34.05a24.67,24.67,0,0,0-8.73-6.11c-8.31-3.58-16.74-2.62-18.8,2.16s3,11.56,11.34,15.14,16.74,2.62,18.8-2.15l12.74-29.57,47.87,12.05-9.48,22a24.68,24.68,0,0,0-8.74-6.11c-8.31-3.59-16.74-2.62-18.8,2.15s3,11.57,11.34,15.15,16.74,2.62,18.8-2.16l17.93-41.61Z" transform="translate(165.85 244.57)"/><path d="M257.46-148,242.79-114a24.8,24.8,0,0,0-8.74-6.11c-8.31-3.58-16.74-2.61-18.8,2.16s3,11.56,11.34,15.15,16.75,2.61,18.8-2.16l12.75-29.57L306-122.44l-9.49,22a24.71,24.71,0,0,0-8.74-6.11c-8.31-3.58-16.74-2.62-18.79,2.16s3,11.56,11.34,15.14,16.74,2.62,18.79-2.15L317.06-133Z" transform="translate(165.85 244.57)"/><rect x="93.54" y="-29.13" width="32.56" height="5.59" transform="translate(329.77 317.36) rotate(-105.14)"/><circle cx="273.08" cy="208.23" r="10.36"/><path d="M134,79" transform="translate(165.85 244.57)"/><path d="M113.39-9.79l17.18,57.34c5,16.61,13.41,35,10.19,52.67-2.79,15.34-12.59,29-25.16,38-9.78,7-29.23,11.48-26.5,27.15.33,1.9,3.22,1.09,2.89-.8-1.95-11.19,11.08-15.49,18.76-19.75a68.58,68.58,0,0,0,16.87-13.19c9-9.69,15.46-22.08,16.7-35.39.73-7.91-.78-15.51-3-23.09-2.54-8.83-5.27-17.61-7.9-26.41L116.28-10.59c-.55-1.85-3.45-1.06-2.89.8Z" transform="translate(165.85 244.57)"/><path d="M59.17,137.83A38.68,38.68,0,0,1,79.3,148.32c5.38,5.33,7.42,11.5,10.65,18.09,2.72,5.57,7.26,7.65,13.24,8.18,8.67.78,17.13,1.55,25.59,3.75a117.16,117.16,0,0,1,25.54,9.92c7.7,4.09,14.87,9.07,22.54,13.21,12.87,6.94,26.95,9.93,41.17,12.76,16.43,3.26,33.49,6.72,46.54,18,1.46,1.26,3.59-.86,2.13-2.12-23-19.78-55.36-16.22-81.88-28-15.54-6.9-28.79-17.66-44.95-23.45a119.37,119.37,0,0,0-24.79-6c-4-.52-7.92-.66-11.89-1-5.92-.55-9.15-3.06-11.42-8.47-6-14.31-16-25.14-31.81-28.18-1.88-.36-2.69,2.53-.79,2.89Z" transform="translate(165.85 244.57)"/><path d="M130.3,128.62a1.5,1.5,0,0,0,0-3,1.5,1.5,0,0,0,0,3Z" transform="translate(165.85 244.57)"/><path d="M14.27,85a17.81,17.81,0,0,0,20.35-8.3A1.5,1.5,0,0,0,32,75.22a14.81,14.81,0,0,1-17,6.92A1.5,1.5,0,0,0,14.27,85Z" transform="translate(165.85 244.57)"/></svg>